<?xml version="1.0" standalone="no"?>
<!DOCTYPE svg PUBLIC "-//W3C//DTD SVG 20010904//EN"
 "http://www.w3.org/TR/2001/REC-SVG-20010904/DTD/svg10.dtd">
<svg version="1.0" xmlns="http://www.w3.org/2000/svg"
 width="352.000000pt" height="134.000000pt" viewBox="0 0 352.000000 134.000000"
 preserveAspectRatio="xMidYMid meet">

<g transform="translate(0.000000,134.000000) scale(0.100000,-0.100000)"
fill="#000000" stroke="none">
<path id="Baixo" d="M220 630 l0 -350 480 0 480 0 0 350 0 350 -480 0 -480 0 0 -350z"/>
<path id="Medio" d="M1280 630 l0 -350 470 0 470 0 0 350 0 350 -470 0 -470 0 0 -350z"/>
<path id="Alto" d="M2320 620 l0 -350 480 0 480 0 0 350 0 350 -480 0 -480 0 0 -350z"/>
</g>
</svg>
